<svg width="35" height="35" viewBox="0 0 35 35" fill="none" xmlns="http://www.w3.org/2000/svg">
<path d="M21.5544 0C28.4579 0 34.0544 5.37258 34.0544 12C34.0544 18.6274 28.4579 24 21.5544 24C19.8695 24 18.2634 23.6778 16.7966 23.0977L6.82782 33.0674C5.26577 34.629 2.73355 34.6291 1.17157 33.0674C-0.390524 31.5053 -0.390524 28.9723 1.17157 27.4102L10.6745 17.9062C9.64495 16.1622 9.05439 14.1478 9.05439 12C9.05439 5.3726 14.6508 2.52349e-05 21.5544 0ZM21.5544 4.69141C17.3495 4.69143 13.9411 7.96333 13.9411 12C13.9411 16.0367 17.3495 19.3086 21.5544 19.3086C25.7593 19.3086 29.1677 16.0367 29.1677 12C29.1677 7.96332 25.7593 4.69141 21.5544 4.69141Z" fill="#444444"/>
</svg>
